<svg width="161" height="43" viewBox="0 0 161 43" fill="none" xmlns="http://www.w3.org/2000/svg">
<path d="M13.1504 0H16.0369L24.2839 21.4546H21.4891L19.2899 15.558H9.94324L7.74404 21.4546H4.94922L13.1504 0ZM18.4193 13.154L15.5329 5.44304L14.6624 3.12975H14.5249L13.7002 5.44304L10.8138 13.154H18.4193Z" fill="#5F6368"/>
<path d="M28.4083 20.8651C27.217 20.1394 26.3007 19.1868 25.6134 17.9622C24.9262 16.7375 24.6055 15.3314 24.6055 13.8345C24.6055 12.2923 24.9262 10.9316 25.6134 9.66153C26.3007 8.43685 27.217 7.43896 28.4083 6.75858C29.5995 6.0782 30.9282 5.71533 32.4401 5.71533C34.1354 5.71533 35.5099 6.0782 36.6553 6.8493C37.8007 7.62039 38.6254 8.61828 39.0836 9.93368L36.7469 10.8862C36.3804 9.93369 35.7848 9.25331 35.0517 8.75436C34.3186 8.25542 33.4023 8.02862 32.3027 8.02862C31.3863 8.02862 30.5616 8.25542 29.7828 8.75436C29.0039 9.25331 28.3624 9.93368 27.9043 10.7955C27.4461 11.6573 27.1712 12.7006 27.1712 13.8345C27.1712 14.9685 27.4003 15.9664 27.9043 16.8736C28.3624 17.7354 29.0039 18.4158 29.7828 18.9147C30.5616 19.4136 31.4322 19.6404 32.3027 19.6404C33.4023 19.6404 34.3186 19.4136 35.0975 18.9147C35.8764 18.4158 36.472 17.69 36.8385 16.7828L39.1294 17.7354C38.6254 19.0054 37.7549 20.0033 36.6095 20.7744C35.464 21.5455 34.0437 21.9537 32.3943 21.9537C30.9282 21.9084 29.5995 21.5455 28.4083 20.8651Z" fill="#5F6368"/>
<path d="M43.8926 20.8651C42.7014 20.1394 41.7851 19.1868 41.0978 17.9622C40.4106 16.7375 40.0898 15.3314 40.0898 13.8345C40.0898 12.2923 40.4106 10.9316 41.0978 9.66153C41.7851 8.43685 42.7014 7.43896 43.8926 6.75858C45.0839 6.0782 46.4126 5.71533 47.9245 5.71533C49.6197 5.71533 50.9942 6.0782 52.1396 6.8493C53.2851 7.62039 54.1098 8.61828 54.5679 9.93368L52.2313 10.8862C51.8647 9.93369 51.2691 9.25331 50.5361 8.75436C49.803 8.25542 48.8867 8.02862 47.7871 8.02862C46.8707 8.02862 46.046 8.25542 45.2671 8.75436C44.4883 9.25331 43.8468 9.93368 43.3886 10.7955C42.9305 11.6573 42.6556 12.7006 42.6556 13.8345C42.6556 14.9685 42.8847 15.9664 43.3886 16.8736C43.8468 17.7354 44.4883 18.4158 45.2671 18.9147C46.046 19.4136 46.9165 19.6404 47.7871 19.6404C48.8867 19.6404 49.803 19.4136 50.5819 18.9147C51.3608 18.4158 51.9564 17.69 52.3229 16.7828L54.6137 17.7354C54.1098 19.0054 53.2392 20.0033 52.0938 20.7744C50.9484 21.5455 49.5281 21.9537 47.8787 21.9537C46.4126 21.9084 45.0839 21.5455 43.8926 20.8651Z" fill="#5F6368"/>
<path d="M59.3322 20.8646C58.141 20.1842 57.2705 19.1864 56.5832 17.9617C55.9418 16.737 55.6211 15.3309 55.6211 13.834C55.6211 12.3372 55.9418 11.0218 56.5374 9.75176C57.133 8.52708 58.0036 7.52919 59.149 6.80345C60.2944 6.07771 61.5773 5.71484 63.0892 5.71484C64.6012 5.71484 65.9299 6.03235 67.0295 6.71273C68.1291 7.39311 68.9996 8.30029 69.5952 9.47961C70.1908 10.6589 70.4657 12.0197 70.4657 13.5165C70.4657 13.834 70.4199 14.0608 70.3741 14.2876H58.1868C58.2326 15.467 58.5075 16.4195 59.0115 17.2359C59.5155 18.0524 60.1569 18.6421 60.9358 19.0503C61.7147 19.4585 62.5394 19.6399 63.3641 19.6399C65.3342 19.6399 66.8462 18.7328 67.9458 16.8731L70.145 17.9163C69.4577 19.141 68.5872 20.1389 67.4418 20.8646C66.2964 21.5904 64.9219 21.9532 63.3183 21.9532C61.8063 21.9079 60.5235 21.545 59.3322 20.8646ZM67.7167 12.2011C67.6709 11.5661 67.4876 10.9311 67.1669 10.2961C66.8462 9.66105 66.3422 9.11674 65.655 8.66316C64.9677 8.20957 64.0972 7.98278 63.0434 7.98278C61.8522 7.98278 60.7984 8.34564 59.9737 9.11674C59.149 9.88784 58.5992 10.8857 58.3243 12.1558H67.7167V12.2011Z" fill="#5F6368"/>
<path d="M72.7109 0H75.2767V21.4546H72.7109V0Z" fill="#5F6368"/>
<path d="M81.2346 20.8651C80.0434 20.1847 79.1728 19.1868 78.4856 17.9622C77.8442 16.7375 77.5234 15.3314 77.5234 13.8345C77.5234 12.3377 77.8442 11.0223 78.4398 9.75225C79.0354 8.52757 79.9059 7.52968 81.0513 6.80394C82.1968 6.0782 83.4796 5.71533 84.9916 5.71533C86.5035 5.71533 87.8322 6.03284 88.9318 6.71322C90.0314 7.3936 90.902 8.30077 91.4976 9.4801C92.0932 10.6594 92.3681 12.0202 92.3681 13.517C92.3681 13.8345 92.3223 14.0613 92.2765 14.2881H80.0892C80.135 15.4674 80.4099 16.42 80.9139 17.2364C81.4179 18.0529 82.0593 18.6425 82.8382 19.0508C83.6171 19.459 84.4418 19.6404 85.2665 19.6404C87.2366 19.6404 88.7486 18.7333 89.8482 16.8736L92.0474 17.9168C91.3601 19.1415 90.4896 20.1394 89.3442 20.8651C88.1988 21.5909 86.8243 21.9537 85.2207 21.9537C83.7545 21.9084 82.4258 21.5455 81.2346 20.8651ZM89.6649 12.2016C89.6191 11.5666 89.4358 10.9316 89.1151 10.2966C88.7944 9.66153 88.2904 9.11723 87.6031 8.66364C86.9159 8.21006 86.0454 7.98326 84.9916 7.98326C83.8003 7.98326 82.7466 8.34613 81.9219 9.11723C81.0972 9.88833 80.5473 10.8862 80.2724 12.1563H89.6649V12.2016Z" fill="#5F6368"/>
<path d="M94.6122 6.16892H97.0405V8.61829H97.178C97.4987 7.80183 98.0485 7.07609 98.919 6.53179C99.7895 5.98748 100.706 5.71533 101.622 5.71533C102.309 5.71533 102.951 5.80605 103.455 6.03284V8.75436C102.813 8.43685 102.08 8.25542 101.256 8.25542C100.523 8.25542 99.8353 8.48221 99.1939 8.89044C98.5525 9.29867 98.0485 9.88833 97.6819 10.5687C97.3154 11.2944 97.1321 12.0655 97.1321 12.882V21.4548H94.5664V6.16892H94.6122Z" fill="#5F6368"/>
<path d="M107.029 21.2733C106.159 20.8198 105.471 20.2301 104.967 19.459C104.463 18.6879 104.234 17.8261 104.234 16.8282C104.234 15.1953 104.83 13.9706 106.067 13.0634C107.304 12.1563 108.862 11.7027 110.74 11.7027C111.657 11.7027 112.527 11.7934 113.306 12.0202C114.085 12.2016 114.726 12.4284 115.139 12.7006V11.7934C115.139 10.6594 114.726 9.75225 113.948 9.07187C113.123 8.39149 112.115 8.02862 110.878 8.02862C110.007 8.02862 109.228 8.21006 108.495 8.57293C107.762 8.93579 107.212 9.43474 106.754 10.1151L104.83 8.66364C105.426 7.75647 106.25 7.03073 107.304 6.48643C108.358 5.98748 109.549 5.71533 110.832 5.71533C112.94 5.71533 114.589 6.25964 115.78 7.34824C116.971 8.43685 117.567 9.93369 117.567 11.7934V21.4548H115.139V19.2776H115.001C114.543 20.0033 113.902 20.6383 112.985 21.1826C112.115 21.6816 111.107 21.9537 110.007 21.9537C108.953 21.9084 107.946 21.6816 107.029 21.2733ZM112.71 19.0054C113.444 18.5518 114.039 17.9622 114.497 17.2364C114.955 16.5107 115.185 15.6942 115.185 14.8324C114.681 14.5149 114.085 14.2428 113.398 14.0613C112.71 13.8799 111.932 13.7438 111.153 13.7438C109.732 13.7438 108.679 14.016 107.946 14.6056C107.212 15.1953 106.892 15.921 106.892 16.8282C106.892 17.6447 107.212 18.325 107.854 18.8693C108.495 19.3683 109.32 19.6404 110.282 19.6404C111.199 19.6858 111.977 19.459 112.71 19.0054Z" fill="#5F6368"/>
<path d="M124.074 21.5904C123.524 21.4089 123.111 21.0914 122.745 20.7739C122.333 20.3657 122.058 19.9575 121.829 19.4132C121.645 18.9142 121.508 18.2792 121.508 17.5535V8.48174H118.805V6.16845H121.508V1.85938H124.074V6.16845H127.831V8.48174H124.074V17.0092C124.074 17.871 124.257 18.506 124.578 18.9142C124.944 19.3678 125.494 19.5946 126.227 19.5946C126.823 19.5946 127.372 19.4132 127.922 19.0957V21.5904C127.602 21.7265 127.327 21.8172 127.006 21.9079C126.685 21.9533 126.273 21.9986 125.815 21.9986C125.219 21.9079 124.623 21.8172 124.074 21.5904Z" fill="#5F6368"/>
<path d="M132.505 20.8197C131.314 20.094 130.351 19.1414 129.664 17.8714C128.977 16.6467 128.656 15.286 128.656 13.7891C128.656 12.2923 128.977 10.9315 129.664 9.70684C130.351 8.48216 131.268 7.48427 132.505 6.75853C133.696 6.03279 135.071 5.66992 136.583 5.66992C138.094 5.66992 139.469 6.03279 140.66 6.75853C141.851 7.48427 142.814 8.4368 143.501 9.70684C144.188 10.9315 144.509 12.2923 144.509 13.7891C144.509 15.286 144.188 16.6467 143.501 17.8714C142.814 19.0961 141.897 20.094 140.66 20.8197C139.469 21.5454 138.094 21.9083 136.583 21.9083C135.071 21.9083 133.696 21.5454 132.505 20.8197ZM139.24 18.9146C140.065 18.4611 140.706 17.7807 141.21 16.8735C141.714 16.0117 141.943 14.9684 141.943 13.7891C141.943 12.6098 141.714 11.5665 141.21 10.7047C140.706 9.84292 140.065 9.16254 139.24 8.66359C138.415 8.21001 137.545 7.93785 136.583 7.93785C135.62 7.93785 134.75 8.16465 133.925 8.66359C133.1 9.11718 132.459 9.79756 131.955 10.7047C131.451 11.5665 131.222 12.6098 131.222 13.7891C131.222 14.9684 131.451 16.0117 131.955 16.8735C132.459 17.7353 133.1 18.4157 133.925 18.9146C134.75 19.3682 135.62 19.6404 136.583 19.6404C137.545 19.595 138.415 19.3682 139.24 18.9146Z" fill="#5F6368"/>
<path d="M146.706 6.16892H149.134V8.61829H149.272C149.592 7.80183 150.142 7.07609 151.013 6.53179C151.883 5.98748 152.8 5.71533 153.716 5.71533C154.403 5.71533 155.045 5.80605 155.549 6.03284V8.75436C154.907 8.43685 154.174 8.25542 153.349 8.25542C152.616 8.25542 151.929 8.48221 151.288 8.89044C150.646 9.29867 150.142 9.88833 149.776 10.5687C149.409 11.2944 149.226 12.0655 149.226 12.882V21.4548H146.66V6.16892H146.706Z" fill="#5F6368"/>
<path d="M2.01545 28.5763C0.411869 28.6671 -0.000481824 29.3021 -0.000481824 29.7103C-0.0462986 30.9804 0.0911517 33.0669 1.3282 33.339C2.19872 33.5204 6.78039 33.2936 11.1788 33.0669C15.5772 32.8401 19.7465 32.6133 19.7465 32.6133C19.7465 32.6133 26.2983 32.3411 33.125 32.0236C39.9975 31.7514 47.1907 31.4793 48.4736 31.4339C48.7943 31.4339 52.1848 31.3432 58.0493 31.1618C60.9816 31.0711 64.5095 30.9804 68.5413 30.8896C72.5732 30.7989 77.1549 30.6628 82.1947 30.5721C87.2346 30.436 92.6868 30.3907 98.5055 30.3C104.324 30.2546 110.509 30.1639 116.97 30.1639C129.89 30.1639 143.91 30.2093 158.342 30.8443L156.968 28.0774C157.013 27.9413 157.197 27.6692 157.517 27.4877C157.609 27.4424 157.701 27.397 157.792 27.397C157.838 27.397 157.884 27.397 157.93 27.3517H158.021C157.976 27.3517 157.93 27.3517 157.884 27.3517C157.655 27.3517 157.38 27.397 157.013 27.4424C156.28 27.4877 155.318 27.5785 154.173 27.6692C151.882 27.8506 148.904 28.0774 145.972 28.3042C121.093 30.2093 97.0393 32.2958 78.9876 34.0647C60.9358 35.7884 48.886 37.1945 47.9696 37.2852C45.8162 37.5574 40.5473 38.147 35.0951 38.8728C29.6888 39.5985 24.1449 40.415 21.5334 41.05C18.9676 41.6396 18.4637 43.1365 21.5792 43.0004C23.4119 42.9097 31.4756 42.0025 35.37 41.6396C35.7366 41.5943 39.7226 41.1407 46.5035 40.4603C53.2844 39.7799 62.8143 38.8728 74.2684 37.8749C85.7226 36.877 99.0553 35.7884 113.442 34.6998C120.635 34.1555 128.057 33.6112 135.663 33.0669C139.466 32.7947 143.268 32.5225 147.117 32.2504C149.041 32.1143 150.966 31.9782 152.89 31.8422C153.852 31.7968 154.814 31.7061 155.776 31.6607L157.243 31.57L157.976 31.5247L158.342 31.4793H158.48C158.709 31.4793 158.984 31.3886 159.258 31.2979C159.808 31.1164 160.266 30.7536 160.541 30.3907C161.366 29.3928 161.183 27.9413 160.175 27.1249C159.762 26.8074 159.304 26.6259 158.8 26.6259H158.617C148.95 26.1723 137.725 25.8548 126.82 25.7641C124.117 25.7187 121.414 25.7188 118.756 25.7188C116.099 25.7188 113.533 25.7188 111.013 25.7188C106.019 25.7641 101.3 25.8095 97.2226 25.8095C52.0931 26.3084 7.87999 28.3496 2.01545 28.5763Z" fill="#F591AF"/>
</svg>
